<mxfile host="65bd71144e">
    <diagram id="qKJ4Y_9XqR9gqzGb6F3W" name="Student Extension">
        <mxGraphModel dx="1374" dy="790" grid="0" gridSize="10" guides="1" tooltips="1" connect="1" arrows="1" fold="1" page="0" pageScale="1" pageWidth="850" pageHeight="1100" math="0" shadow="0">
            <root>
                <mxCell id="0"/>
                <mxCell id="1" parent="0"/>
                <mxCell id="10" value="" style="rounded=0;whiteSpace=wrap;html=1;" vertex="1" parent="1">
                    <mxGeometry x="320" width="280" height="430" as="geometry"/>
                </mxCell>
                <mxCell id="6" value="String" style="edgeStyle=none;html=1;exitX=0.5;exitY=1;exitDx=0;exitDy=0;entryX=0.5;entryY=0;entryDx=0;entryDy=0;" edge="1" parent="1" source="2" target="3">
                    <mxGeometry relative="1" as="geometry"/>
                </mxCell>
                <mxCell id="2" value="Text entered into WPP in VSCode" style="rounded=0;whiteSpace=wrap;html=1;" vertex="1" parent="1">
                    <mxGeometry x="380" y="50" width="160" height="70" as="geometry"/>
                </mxCell>
                <mxCell id="9" value="Error Object" style="edgeStyle=none;html=1;exitX=0.5;exitY=1;exitDx=0;exitDy=0;entryX=0.5;entryY=0;entryDx=0;entryDy=0;" edge="1" parent="1" source="3" target="5">
                    <mxGeometry relative="1" as="geometry"/>
                </mxCell>
                <mxCell id="3" value="Syntax Analysis" style="rounded=0;whiteSpace=wrap;html=1;" vertex="1" parent="1">
                    <mxGeometry x="380" y="190" width="160" height="70" as="geometry"/>
                </mxCell>
                <mxCell id="5" value="User Interface (VSCode)" style="rounded=0;whiteSpace=wrap;html=1;" vertex="1" parent="1">
                    <mxGeometry x="380" y="330" width="160" height="70" as="geometry"/>
                </mxCell>
                <mxCell id="11" value="VSCode Student Extension" style="text;html=1;strokeColor=none;fillColor=none;align=center;verticalAlign=middle;whiteSpace=wrap;rounded=0;" vertex="1" parent="1">
                    <mxGeometry x="380" width="160" height="30" as="geometry"/>
                </mxCell>
                <mxCell id="12" value="&lt;font style=&quot;font-size: 10px&quot; color=&quot;#6666ff&quot;&gt;To be broken down further&lt;/font&gt;" style="text;html=1;strokeColor=none;fillColor=none;align=center;verticalAlign=middle;whiteSpace=wrap;rounded=0;" vertex="1" parent="1">
                    <mxGeometry x="410" y="240" width="130" height="20" as="geometry"/>
                </mxCell>
            </root>
        </mxGraphModel>
    </diagram>
    <diagram id="BvsGcJBvuj-nogLMwFst" name="Educator Extension">
        <mxGraphModel dx="1774" dy="790" grid="0" gridSize="10" guides="1" tooltips="1" connect="1" arrows="1" fold="1" page="0" pageScale="1" pageWidth="850" pageHeight="1100" math="0" shadow="0">
            <root>
                <mxCell id="M6Ppa6YX1SwLU7Txqbbt-0"/>
                <mxCell id="M6Ppa6YX1SwLU7Txqbbt-1" parent="M6Ppa6YX1SwLU7Txqbbt-0"/>
                <mxCell id="-8pxqYQwA6bLjdNh_HLB-0" value="" style="rounded=0;whiteSpace=wrap;html=1;" vertex="1" parent="M6Ppa6YX1SwLU7Txqbbt-1">
                    <mxGeometry x="-10" y="60" width="660" height="510" as="geometry"/>
                </mxCell>
                <mxCell id="-8pxqYQwA6bLjdNh_HLB-1" value="String" style="edgeStyle=none;html=1;exitX=0.5;exitY=1;exitDx=0;exitDy=0;entryX=0.5;entryY=0;entryDx=0;entryDy=0;" edge="1" parent="M6Ppa6YX1SwLU7Txqbbt-1" source="-8pxqYQwA6bLjdNh_HLB-2" target="-8pxqYQwA6bLjdNh_HLB-4">
                    <mxGeometry relative="1" as="geometry"/>
                </mxCell>
                <mxCell id="-8pxqYQwA6bLjdNh_HLB-2" value="Verification function called (F10)" style="rounded=0;whiteSpace=wrap;html=1;" vertex="1" parent="M6Ppa6YX1SwLU7Txqbbt-1">
                    <mxGeometry x="50" y="110" width="160" height="70" as="geometry"/>
                </mxCell>
                <mxCell id="-8pxqYQwA6bLjdNh_HLB-10" value="String" style="edgeStyle=none;html=1;entryX=0.5;entryY=0;entryDx=0;entryDy=0;fontSize=12;fontColor=#FFFFFF;" edge="1" parent="M6Ppa6YX1SwLU7Txqbbt-1" source="-8pxqYQwA6bLjdNh_HLB-4" target="-8pxqYQwA6bLjdNh_HLB-8">
                    <mxGeometry relative="1" as="geometry"/>
                </mxCell>
                <mxCell id="-8pxqYQwA6bLjdNh_HLB-12" value="Verification Status" style="edgeStyle=none;html=1;exitX=1;exitY=0.5;exitDx=0;exitDy=0;entryX=0;entryY=0.25;entryDx=0;entryDy=0;fontSize=12;fontColor=#FFFFFF;" edge="1" parent="M6Ppa6YX1SwLU7Txqbbt-1" source="-8pxqYQwA6bLjdNh_HLB-4" target="-8pxqYQwA6bLjdNh_HLB-5">
                    <mxGeometry relative="1" as="geometry">
                        <Array as="points">
                            <mxPoint x="250" y="285"/>
                            <mxPoint x="250" y="338"/>
                        </Array>
                    </mxGeometry>
                </mxCell>
                <mxCell id="-8pxqYQwA6bLjdNh_HLB-4" value="Syntax Analysis" style="rounded=0;whiteSpace=wrap;html=1;" vertex="1" parent="M6Ppa6YX1SwLU7Txqbbt-1">
                    <mxGeometry x="50" y="250" width="160" height="70" as="geometry"/>
                </mxCell>
                <mxCell id="-8pxqYQwA6bLjdNh_HLB-13" style="edgeStyle=none;html=1;entryX=1;entryY=0.75;entryDx=0;entryDy=0;fontSize=12;fontColor=#FFFFFF;exitX=0;exitY=0.5;exitDx=0;exitDy=0;" edge="1" parent="M6Ppa6YX1SwLU7Txqbbt-1" source="-8pxqYQwA6bLjdNh_HLB-17" target="-8pxqYQwA6bLjdNh_HLB-8">
                    <mxGeometry relative="1" as="geometry">
                        <Array as="points">
                            <mxPoint x="280" y="480"/>
                            <mxPoint x="280" y="443"/>
                        </Array>
                    </mxGeometry>
                </mxCell>
                <mxCell id="-8pxqYQwA6bLjdNh_HLB-14" value="Verification Method Request" style="edgeLabel;html=1;align=center;verticalAlign=middle;resizable=0;points=[];fontSize=12;fontColor=#FFFFFF;" vertex="1" connectable="0" parent="-8pxqYQwA6bLjdNh_HLB-13">
                    <mxGeometry x="-0.2792" y="1" relative="1" as="geometry">
                        <mxPoint as="offset"/>
                    </mxGeometry>
                </mxCell>
                <mxCell id="-8pxqYQwA6bLjdNh_HLB-19" style="edgeStyle=none;html=1;exitX=1;exitY=0.5;exitDx=0;exitDy=0;entryX=0.5;entryY=0;entryDx=0;entryDy=0;fontSize=12;fontColor=#FFFFFF;" edge="1" parent="M6Ppa6YX1SwLU7Txqbbt-1" source="-8pxqYQwA6bLjdNh_HLB-5" target="-8pxqYQwA6bLjdNh_HLB-17">
                    <mxGeometry relative="1" as="geometry">
                        <Array as="points">
                            <mxPoint x="560" y="355"/>
                        </Array>
                    </mxGeometry>
                </mxCell>
                <mxCell id="-8pxqYQwA6bLjdNh_HLB-5" value="User Interface (VSCode)" style="rounded=0;whiteSpace=wrap;html=1;" vertex="1" parent="M6Ppa6YX1SwLU7Txqbbt-1">
                    <mxGeometry x="360" y="320" width="160" height="70" as="geometry"/>
                </mxCell>
                <mxCell id="-8pxqYQwA6bLjdNh_HLB-6" value="VSCode Educator Extension" style="text;html=1;strokeColor=none;fillColor=none;align=center;verticalAlign=middle;whiteSpace=wrap;rounded=0;" vertex="1" parent="M6Ppa6YX1SwLU7Txqbbt-1">
                    <mxGeometry x="215" y="60" width="160" height="30" as="geometry"/>
                </mxCell>
                <mxCell id="-8pxqYQwA6bLjdNh_HLB-7" value="&lt;font style=&quot;font-size: 10px&quot; color=&quot;#6666ff&quot;&gt;To be broken down further&lt;/font&gt;" style="text;html=1;strokeColor=none;fillColor=none;align=center;verticalAlign=middle;whiteSpace=wrap;rounded=0;" vertex="1" parent="M6Ppa6YX1SwLU7Txqbbt-1">
                    <mxGeometry x="80" y="300" width="130" height="20" as="geometry"/>
                </mxCell>
                <mxCell id="-8pxqYQwA6bLjdNh_HLB-11" value="Verification Status" style="edgeStyle=none;html=1;exitX=1;exitY=0.25;exitDx=0;exitDy=0;entryX=0;entryY=0.75;entryDx=0;entryDy=0;fontSize=12;fontColor=#FFFFFF;" edge="1" parent="M6Ppa6YX1SwLU7Txqbbt-1" source="-8pxqYQwA6bLjdNh_HLB-8" target="-8pxqYQwA6bLjdNh_HLB-5">
                    <mxGeometry relative="1" as="geometry">
                        <Array as="points">
                            <mxPoint x="250" y="408"/>
                            <mxPoint x="250" y="373"/>
                        </Array>
                    </mxGeometry>
                </mxCell>
                <mxCell id="-8pxqYQwA6bLjdNh_HLB-15" style="edgeStyle=none;html=1;exitX=1;exitY=0.5;exitDx=0;exitDy=0;fontSize=12;fontColor=#FFFFFF;entryX=0.25;entryY=1;entryDx=0;entryDy=0;" edge="1" parent="M6Ppa6YX1SwLU7Txqbbt-1" source="-8pxqYQwA6bLjdNh_HLB-8" target="-8pxqYQwA6bLjdNh_HLB-5">
                    <mxGeometry relative="1" as="geometry">
                        <Array as="points">
                            <mxPoint x="400" y="425"/>
                        </Array>
                    </mxGeometry>
                </mxCell>
                <mxCell id="-8pxqYQwA6bLjdNh_HLB-16" value="Verification Method Object" style="edgeLabel;html=1;align=center;verticalAlign=middle;resizable=0;points=[];fontSize=12;fontColor=#FFFFFF;" vertex="1" connectable="0" parent="-8pxqYQwA6bLjdNh_HLB-15">
                    <mxGeometry x="0.2356" y="1" relative="1" as="geometry">
                        <mxPoint as="offset"/>
                    </mxGeometry>
                </mxCell>
                <mxCell id="-8pxqYQwA6bLjdNh_HLB-8" value="Verification Condition Analysis" style="rounded=0;whiteSpace=wrap;html=1;" vertex="1" parent="M6Ppa6YX1SwLU7Txqbbt-1">
                    <mxGeometry x="50" y="390" width="160" height="70" as="geometry"/>
                </mxCell>
                <mxCell id="-8pxqYQwA6bLjdNh_HLB-17" value="Has verification method request been made?" style="rhombus;whiteSpace=wrap;html=1;fontSize=12;fontColor=#FFFFFF;" vertex="1" parent="M6Ppa6YX1SwLU7Txqbbt-1">
                    <mxGeometry x="490" y="420" width="140" height="120" as="geometry"/>
                </mxCell>
                <mxCell id="-8pxqYQwA6bLjdNh_HLB-20" value="Yes" style="text;html=1;strokeColor=none;fillColor=none;align=center;verticalAlign=middle;whiteSpace=wrap;rounded=0;fontSize=12;fontColor=#FFFFFF;" vertex="1" parent="M6Ppa6YX1SwLU7Txqbbt-1">
                    <mxGeometry x="450" y="480" width="60" height="30" as="geometry"/>
                </mxCell>
                <mxCell id="-8pxqYQwA6bLjdNh_HLB-21" value="&lt;font style=&quot;font-size: 10px&quot; color=&quot;#6666ff&quot;&gt;To be broken down further&lt;/font&gt;" style="text;html=1;strokeColor=none;fillColor=none;align=center;verticalAlign=middle;whiteSpace=wrap;rounded=0;" vertex="1" parent="M6Ppa6YX1SwLU7Txqbbt-1">
                    <mxGeometry x="80" y="440" width="130" height="20" as="geometry"/>
                </mxCell>
            </root>
        </mxGraphModel>
    </diagram>
</mxfile>